<?xml version="1.0" encoding="UTF-8" standalone="no"?><!DOCTYPE svg PUBLIC "-//W3C//DTD SVG 1.1//EN" "http://www.w3.org/Graphics/SVG/1.1/DTD/svg11.dtd"><svg width="100%" height="100%" viewBox="0 0 2084 143" version="1.1" xmlns="http://www.w3.org/2000/svg" xmlns:xlink="http://www.w3.org/1999/xlink" xml:space="preserve" xmlns:serif="http://www.serif.com/" style="fill-rule:evenodd;clip-rule:evenodd;stroke-linejoin:round;stroke-miterlimit:2;"><rect id="Artboard2" x="0" y="0" width="2083.33" height="142.803" style="fill:none;"/><clipPath id="_clip1"><rect x="0" y="0" width="2083.33" height="142.803"/></clipPath><g clip-path="url(#_clip1)"><g><path d="M100.16,142.803l-26.379,-0c-0.264,-0 -0.528,-0.033 -0.793,-0.099c-0.264,-0.067 -0.463,-0.166 -0.595,-0.298c-0.132,-0.132 -0.264,-0.264 -0.397,-0.397c-0.132,-0.132 -0.231,-0.33 -0.297,-0.595c-0.066,-0.264 -0.099,-0.529 -0.099,-0.793l-0,-136.654l26.379,-0c0.396,-0 0.76,0.099 1.09,0.297c0.331,0.199 0.595,0.463 0.794,0.794c0.198,0.33 0.297,0.694 0.297,1.09l0,136.655Zm-67.434,2.181c-5.686,0 -10.578,-0.793 -14.677,-2.38c-4.099,-1.586 -7.471,-3.933 -10.116,-7.041c-2.644,-3.107 -4.627,-6.908 -5.95,-11.404c-1.322,-4.496 -1.983,-9.718 -1.983,-15.669l0,-104.523l26.379,-0c0.529,-0 0.925,0.099 1.19,0.297c0.264,0.199 0.496,0.43 0.694,0.694c0.198,0.265 0.298,0.662 0.298,1.19l-0,100.557c-0,4.76 0.991,8.165 2.975,10.215c1.983,2.049 5.289,3.074 9.916,3.074c4.364,-0 8.496,-0.826 12.397,-2.479c3.9,-1.653 7.702,-4.231 11.404,-7.735c3.702,-3.504 7.272,-7.967 10.71,-13.388l0,28.164l-8.33,-0c-2.512,4.363 -5.454,8.065 -8.826,11.107c-3.372,3.041 -7.206,5.355 -11.504,6.941c-4.297,1.587 -9.156,2.38 -14.577,2.38Z" style="fill:#8e9093;fill-rule:nonzero;"/><path d="M152.323,142.803l-24.792,-0c-0.397,-0 -0.761,-0.099 -1.091,-0.298c-0.331,-0.198 -0.595,-0.463 -0.793,-0.793c-0.199,-0.331 -0.298,-0.694 -0.298,-1.091l0,-136.654l29.949,-0c0.793,-0 1.388,0.099 1.785,0.297c0.397,0.199 0.859,0.694 1.388,1.488c0.529,0.793 1.323,2.248 2.38,4.363c3.042,5.686 6.017,11.206 8.926,16.561c2.909,5.355 5.784,10.677 8.627,15.966c2.843,5.289 5.62,10.545 8.33,15.768c2.711,5.223 5.422,10.413 8.132,15.57c2.711,5.157 5.421,10.346 8.132,15.569c2.711,5.223 5.322,10.545 7.834,15.966l-7.735,-5.355l13.487,0l-4.165,2.38c-1.058,-5.95 -1.95,-11.503 -2.677,-16.66c-0.728,-5.157 -1.356,-10.082 -1.885,-14.776c-0.529,-4.694 -0.925,-9.256 -1.19,-13.685c-0.264,-4.43 -0.462,-8.793 -0.595,-13.091c-0.132,-4.297 -0.198,-8.693 -0.198,-13.189l-0,-27.172l24.792,-0c0.661,-0 1.19,0.198 1.587,0.595c0.396,0.396 0.595,0.925 0.595,1.586l-0,136.655l-24.396,-0c-0.793,-0 -1.719,-0.298 -2.776,-0.893c-1.058,-0.595 -2.447,-2.413 -4.165,-5.454c-5.818,-9.917 -11.173,-19.206 -16.066,-27.866c-4.892,-8.661 -9.454,-16.958 -13.685,-24.892c-4.231,-7.933 -8.297,-15.768 -12.198,-23.503c-3.9,-7.735 -7.834,-15.701 -11.801,-23.899l8.925,6.743l-13.685,0l3.57,-2.975c1.058,6.215 1.884,12.099 2.479,17.652c0.595,5.554 1.124,10.809 1.587,15.768c0.463,4.958 0.826,9.652 1.091,14.082c0.264,4.429 0.43,8.561 0.496,12.396c0.066,3.834 0.099,7.338 0.099,10.512l-0,32.329Z" style="fill:#8e9093;fill-rule:nonzero;"/><path d="M360.974,95.4c-0,7.537 -1.091,14.247 -3.273,20.131c-2.182,5.884 -5.388,10.843 -9.619,14.876c-4.232,4.033 -9.289,7.107 -15.173,9.222c-5.884,2.116 -12.462,3.174 -19.735,3.174l-51.766,-0c-0.661,-0 -1.19,-0.199 -1.586,-0.595c-0.397,-0.397 -0.595,-0.926 -0.595,-1.587l-0,-122.771l30.345,0l-1.785,4.364l0,95.202l24.792,-0c5.289,-0 9.487,-0.926 12.595,-2.777c3.107,-1.851 5.388,-4.562 6.842,-8.132c1.455,-3.57 2.182,-7.801 2.182,-12.694l0,-40.857c0,-3.041 -0.198,-5.752 -0.595,-8.132c-0.397,-2.38 -1.025,-4.462 -1.884,-6.247c-0.86,-1.785 -1.884,-3.339 -3.074,-4.661c-1.19,-1.058 -2.579,-1.918 -4.165,-2.579c-1.587,-0.661 -3.339,-1.157 -5.256,-1.487c-1.918,-0.331 -4.265,-0.496 -7.041,-0.496l-60.493,-0c-0.397,-0 -0.76,-0.099 -1.091,-0.298c-0.331,-0.198 -0.595,-0.462 -0.793,-0.793c-0.199,-0.331 -0.298,-0.694 -0.298,-1.091l0,-23.205l61.485,-0c8.859,-0 16.462,1.091 22.808,3.272c6.347,2.182 11.537,5.355 15.57,9.52c4.033,4.166 6.975,9.124 8.826,14.876c1.851,5.752 2.777,12.264 2.777,19.536l-0,44.229Z" style="fill:#8e9093;fill-rule:nonzero;"/><path d="M378.229,3.967l91.037,-0c0.396,-0 0.727,0.099 0.991,0.297c0.265,0.199 0.529,0.463 0.794,0.794c0.264,0.33 0.396,0.694 0.396,1.09l0,22.016l-91.036,-0c-0.397,-0 -0.761,-0.099 -1.091,-0.298c-0.331,-0.198 -0.595,-0.462 -0.794,-0.793c-0.198,-0.331 -0.297,-0.694 -0.297,-1.091l-0,-22.015Zm27.172,57.319l52.163,0c0.396,0 0.76,0.132 1.091,0.397c0.33,0.264 0.595,0.529 0.793,0.793c0.198,0.265 0.297,0.595 0.297,0.992l0,21.222l-54.344,-0l0,-23.404Zm-15.272,81.517c-0.397,-0 -0.727,-0.066 -0.992,-0.199c-0.264,-0.132 -0.495,-0.297 -0.694,-0.495c-0.198,-0.199 -0.363,-0.43 -0.496,-0.695c-0.132,-0.264 -0.198,-0.529 -0.198,-0.793l0,-122.176l30.147,0l-1.586,4.364l-0,95.797l52.956,-0c0.661,-0 1.19,0.198 1.586,0.595c0.397,0.396 0.595,0.925 0.595,1.586l0,22.016l-81.318,-0Z" style="fill:#8e9093;fill-rule:nonzero;"/><path d="M560.302,79.335c3.438,6.082 6.612,11.735 9.521,16.958c2.909,5.223 6.016,10.941 9.321,17.156c1.19,1.983 2.281,3.339 3.273,4.066c0.992,0.727 2.215,1.091 3.669,1.091l6.545,-0l0,22.015c0,0.661 -0.198,1.19 -0.595,1.587c-0.396,0.396 -0.925,0.595 -1.586,0.595l-7.934,-0c-4.495,-0 -8.264,-0.364 -11.305,-1.091c-3.041,-0.727 -5.653,-2.05 -7.834,-3.967c-2.182,-1.917 -4.198,-4.595 -6.05,-8.033c-3.437,-6.743 -6.842,-13.453 -10.214,-20.131c-3.372,-6.677 -6.777,-13.321 -10.214,-19.933l23.403,-10.313Zm-72.789,-75.368l54.741,-0c8.065,-0 14.941,0.925 20.627,2.776c5.685,1.852 10.313,4.595 13.883,8.231c3.57,3.637 6.182,7.967 7.835,12.992c1.653,5.024 2.479,10.644 2.479,16.858l-0,11.107c-0,6.082 -0.926,11.537 -2.777,16.363c-1.851,4.826 -4.528,8.925 -8.032,12.297c-3.504,3.372 -7.769,5.917 -12.793,7.636c-5.025,1.719 -10.71,2.578 -17.057,2.578l-24.197,0l-2.182,1.19l-0,-24.594l23.205,0c3.703,0 6.744,-0.529 9.124,-1.586c2.38,-1.058 4.132,-2.744 5.256,-5.058c1.124,-2.314 1.686,-5.124 1.686,-8.429l-0,-12.892c-0,-2.512 -0.298,-4.694 -0.893,-6.545c-0.595,-1.851 -1.553,-3.438 -2.876,-4.76c-1.19,-1.19 -2.809,-2.149 -4.859,-2.876c-2.049,-0.728 -4.529,-1.091 -7.438,-1.091l-53.551,-0c-0.661,-0 -1.19,-0.198 -1.586,-0.595c-0.397,-0.397 -0.595,-0.926 -0.595,-1.587l-0,-22.015Zm37.287,138.836l-25.387,-0c-0.661,-0 -1.19,-0.199 -1.587,-0.595c-0.396,-0.397 -0.595,-0.926 -0.595,-1.587l0,-121.779l29.949,0l-2.38,5.355l0,118.606Z" style="fill:#8e9093;fill-rule:nonzero;"/><path d="M727.699,146.769c-9.52,0 -17.85,-1.223 -24.991,-3.669c-7.14,-2.446 -13.09,-5.983 -17.85,-10.611c-4.76,-4.628 -8.297,-10.313 -10.611,-17.057c-2.314,-6.743 -3.471,-14.412 -3.471,-23.007l0,-40.064c0,-7.801 1.19,-14.908 3.57,-21.321c2.38,-6.413 5.917,-11.934 10.611,-16.561c4.694,-4.628 10.446,-8.198 17.256,-10.711c6.809,-2.512 14.577,-3.768 23.304,-3.768c6.744,0 12.793,0.628 18.148,1.884c5.355,1.256 9.917,2.843 13.685,4.76c3.769,1.918 6.711,3.934 8.826,6.05c0.265,0.264 0.463,0.595 0.595,0.991c0.133,0.397 0.232,0.794 0.298,1.19c0.066,0.397 0.099,0.794 0.099,1.19l0,34.709l-23.007,0c-0.661,0 -1.19,-0.198 -1.587,-0.595c-0.396,-0.396 -0.595,-0.925 -0.595,-1.586l0,-25.586l5.554,8.33c-3.306,-2.115 -6.744,-3.603 -10.314,-4.462c-3.57,-0.86 -7.603,-1.29 -12.098,-1.29c-5.289,0 -9.884,0.959 -13.785,2.876c-3.9,1.918 -6.876,4.926 -8.925,9.025c-2.049,4.099 -3.074,9.322 -3.074,15.668l-0,37.089c-0,5.951 0.562,10.942 1.686,14.975c1.124,4.033 3.008,7.371 5.652,10.016c2.38,2.38 5.388,4.066 9.025,5.057c3.636,0.992 7.702,1.488 12.197,1.488c7.273,0 13.686,-0.859 19.239,-2.578c5.553,-1.719 11.371,-4.496 17.454,-8.331l3.768,0l0,21.818c0,0.661 -0.099,1.256 -0.297,1.785c-0.199,0.528 -0.496,0.925 -0.893,1.19c-1.851,1.983 -4.694,3.801 -8.528,5.454c-3.835,1.653 -8.397,3.008 -13.686,4.066c-5.289,1.058 -11.04,1.586 -17.255,1.586Z" style="fill:#8e9093;fill-rule:nonzero;"/><path d="M841.544,0c9.917,0 18.876,2.083 26.875,6.248c8,4.165 14.347,10.346 19.041,18.544c4.694,8.198 7.041,18.445 7.041,30.742l-0,37.883c-0,11.371 -2.314,21.024 -6.942,28.957c-4.628,7.934 -10.909,13.983 -18.842,18.148c-7.934,4.165 -16.991,6.247 -27.173,6.247c-9.916,0 -18.875,-2.082 -26.874,-6.247c-8,-4.165 -14.347,-10.214 -19.041,-18.148c-4.694,-7.933 -7.041,-17.586 -7.041,-28.957l0,-37.883c0,-12.297 2.447,-22.544 7.339,-30.742c4.892,-8.198 11.404,-14.379 19.536,-18.544c8.132,-4.165 16.826,-6.248 26.081,-6.248Zm-26.18,91.632c-0,7.537 0.926,13.156 2.777,16.858c1.851,3.703 3.768,6.413 5.751,8.132c1.984,1.587 4.529,2.909 7.636,3.967c3.108,1.058 6.711,1.587 10.81,1.587c5.024,-0 9.388,-1.124 13.09,-3.372c3.702,-2.248 6.677,-5.686 8.925,-10.314c2.248,-4.627 3.372,-10.313 3.372,-17.057l-0,-38.08c-0,-4.232 -0.264,-7.769 -0.793,-10.611c-0.529,-2.843 -1.323,-5.256 -2.38,-7.24c-1.058,-1.983 -2.38,-3.702 -3.967,-5.156c-1.984,-1.984 -4.496,-3.504 -7.537,-4.562c-3.041,-1.058 -6.743,-1.587 -11.107,-1.587c-6.082,0 -11.074,1.19 -14.974,3.57c-3.901,2.38 -6.81,5.752 -8.727,10.115c-1.917,4.364 -2.876,9.521 -2.876,15.471l-0,38.279Z" style="fill:#8e9093;fill-rule:nonzero;"/><path d="M943.688,142.803l-24.792,-0c-0.397,-0 -0.76,-0.099 -1.091,-0.298c-0.33,-0.198 -0.595,-0.463 -0.793,-0.793c-0.199,-0.331 -0.298,-0.694 -0.298,-1.091l0,-136.654l29.949,-0c0.794,-0 1.389,0.099 1.785,0.297c0.397,0.199 0.86,0.694 1.389,1.488c0.528,0.793 1.322,2.248 2.38,4.363c3.041,5.686 6.016,11.206 8.925,16.561c2.909,5.355 5.785,10.677 8.627,15.966c2.843,5.289 5.62,10.545 8.331,15.768c2.71,5.223 5.421,10.413 8.131,15.57c2.711,5.157 5.422,10.346 8.132,15.569c2.711,5.223 5.322,10.545 7.835,15.966l-7.736,-5.355l13.487,0l-4.165,2.38c-1.058,-5.95 -1.95,-11.503 -2.677,-16.66c-0.728,-5.157 -1.356,-10.082 -1.884,-14.776c-0.529,-4.694 -0.926,-9.256 -1.191,-13.685c-0.264,-4.43 -0.462,-8.793 -0.595,-13.091c-0.132,-4.297 -0.198,-8.693 -0.198,-13.189l0,-27.172l24.792,-0c0.661,-0 1.19,0.198 1.587,0.595c0.397,0.396 0.595,0.925 0.595,1.586l-0,136.655l-24.395,-0c-0.794,-0 -1.719,-0.298 -2.777,-0.893c-1.058,-0.595 -2.446,-2.413 -4.165,-5.454c-5.818,-9.917 -11.173,-19.206 -16.066,-27.866c-4.892,-8.661 -9.454,-16.958 -13.685,-24.892c-4.231,-7.933 -8.297,-15.768 -12.198,-23.503c-3.9,-7.735 -7.834,-15.701 -11.801,-23.899l8.926,6.743l-13.686,0l3.57,-2.975c1.058,6.215 1.885,12.099 2.48,17.652c0.595,5.554 1.123,10.809 1.586,15.768c0.463,4.958 0.827,9.652 1.091,14.082c0.265,4.429 0.43,8.561 0.496,12.396c0.066,3.834 0.099,7.338 0.099,10.512l0,32.329Z" style="fill:#8e9093;fill-rule:nonzero;"/><path d="M1098.59,0.198c9.256,0 17.19,1.091 23.801,3.273c6.611,2.182 11.437,4.793 14.478,7.834c0.529,0.529 0.86,1.058 0.992,1.587c0.132,0.529 0.199,1.19 0.199,1.983l-0,27.371l-23.206,-0c-0.661,-0 -1.19,-0.199 -1.587,-0.595c-0.396,-0.397 -0.595,-0.926 -0.595,-1.587l0,-18.842l5.554,7.14c-3.174,-1.454 -6.248,-2.479 -9.223,-3.074c-2.975,-0.595 -6.446,-0.893 -10.413,-0.893c-3.834,0 -7.173,0.265 -10.016,0.794c-2.842,0.529 -5.256,1.421 -7.239,2.677c-1.983,1.257 -3.504,2.843 -4.562,4.76c-1.057,1.918 -1.586,4.199 -1.586,6.843l-0,4.165c-0,2.512 0.429,4.694 1.289,6.545c0.859,1.851 2.446,3.438 4.76,4.76c2.314,1.323 5.785,2.711 10.413,4.165l19.04,5.752c6.082,1.851 11.206,3.868 15.371,6.05c4.165,2.181 7.438,4.66 9.818,7.437c2.38,2.777 4.099,5.95 5.157,9.52c1.057,3.57 1.586,7.669 1.586,12.297l0,9.124c0,7.669 -2.049,14.313 -6.148,19.933c-4.099,5.619 -10.016,9.917 -17.751,12.892c-7.736,2.975 -17.024,4.462 -27.867,4.462c-6.347,0 -12.33,-0.397 -17.949,-1.19c-5.62,-0.793 -10.512,-2.016 -14.677,-3.669c-4.165,-1.653 -7.438,-3.537 -9.818,-5.653c-0.397,-0.396 -0.694,-0.826 -0.892,-1.289c-0.199,-0.463 -0.298,-1.289 -0.298,-2.479l0,-21.817l3.769,-0c5.95,3.967 12.164,6.909 18.643,8.826c6.479,1.917 14.148,2.876 23.007,2.876c8.198,-0 14.181,-1.323 17.95,-3.967c3.768,-2.645 5.652,-5.818 5.652,-9.52l0,-6.744c0,-2.248 -0.363,-4.132 -1.09,-5.652c-0.728,-1.521 -2.215,-2.975 -4.463,-4.364c-2.248,-1.388 -5.818,-2.743 -10.71,-4.066l-18.842,-5.751c-6.479,-1.984 -11.834,-4.265 -16.066,-6.843c-4.231,-2.578 -7.503,-5.322 -9.817,-8.231c-2.314,-2.909 -3.967,-6.049 -4.959,-9.421c-0.991,-3.372 -1.487,-6.909 -1.487,-10.611l-0,-9.52c-0,-5.421 1.157,-10.413 3.471,-14.975c2.314,-4.561 5.652,-8.528 10.016,-11.9c4.363,-3.372 9.619,-5.95 15.768,-7.735c6.148,-1.785 12.991,-2.678 20.527,-2.678Z" style="fill:#8e9093;fill-rule:nonzero;"/><path d="M1158.09,3.967l96.391,-0c0.662,-0 1.223,0.198 1.686,0.595c0.463,0.396 0.694,0.925 0.694,1.586l0,22.016l-96.391,-0c-0.397,-0 -0.761,-0.099 -1.091,-0.298c-0.331,-0.198 -0.628,-0.462 -0.893,-0.793c-0.264,-0.331 -0.396,-0.694 -0.396,-1.091l-0,-22.015Zm63.666,138.836l-26.379,-0c-0.661,-0 -1.19,-0.199 -1.587,-0.595c-0.396,-0.397 -0.595,-0.926 -0.595,-1.587l0,-122.969l30.742,0l-2.181,5.355l-0,119.796Z" style="fill:#8e9093;fill-rule:nonzero;"/><path d="M1345.72,79.335c3.437,6.082 6.611,11.735 9.52,16.958c2.909,5.223 6.016,10.941 9.322,17.156c1.19,1.983 2.28,3.339 3.272,4.066c0.992,0.727 2.215,1.091 3.669,1.091l6.545,-0l0,22.015c0,0.661 -0.198,1.19 -0.595,1.587c-0.396,0.396 -0.925,0.595 -1.586,0.595l-7.934,-0c-4.495,-0 -8.264,-0.364 -11.305,-1.091c-3.041,-0.727 -5.653,-2.05 -7.834,-3.967c-2.182,-1.917 -4.198,-4.595 -6.05,-8.033c-3.437,-6.743 -6.842,-13.453 -10.214,-20.131c-3.372,-6.677 -6.776,-13.321 -10.214,-19.933l23.404,-10.313Zm-72.79,-75.368l54.741,-0c8.066,-0 14.941,0.925 20.627,2.776c5.686,1.852 10.313,4.595 13.883,8.231c3.571,3.637 6.182,7.967 7.835,12.992c1.653,5.024 2.479,10.644 2.479,16.858l0,11.107c0,6.082 -0.926,11.537 -2.777,16.363c-1.851,4.826 -4.528,8.925 -8.032,12.297c-3.504,3.372 -7.769,5.917 -12.793,7.636c-5.025,1.719 -10.71,2.578 -17.057,2.578l-24.197,0l-2.182,1.19l0,-24.594l23.206,0c3.702,0 6.743,-0.529 9.123,-1.586c2.38,-1.058 4.132,-2.744 5.256,-5.058c1.124,-2.314 1.686,-5.124 1.686,-8.429l-0,-12.892c-0,-2.512 -0.298,-4.694 -0.893,-6.545c-0.595,-1.851 -1.553,-3.438 -2.876,-4.76c-1.19,-1.19 -2.809,-2.149 -4.859,-2.876c-2.049,-0.728 -4.529,-1.091 -7.437,-1.091l-53.552,-0c-0.661,-0 -1.19,-0.198 -1.586,-0.595c-0.397,-0.397 -0.595,-0.926 -0.595,-1.587l-0,-22.015Zm37.287,138.836l-25.387,-0c-0.661,-0 -1.19,-0.199 -1.587,-0.595c-0.396,-0.397 -0.595,-0.926 -0.595,-1.587l0,-121.779l29.949,0l-2.38,5.355l0,118.606Z" style="fill:#8e9093;fill-rule:nonzero;"/><path d="M1500.42,142.803l-26.378,-0c-0.265,-0 -0.529,-0.033 -0.794,-0.099c-0.264,-0.067 -0.463,-0.166 -0.595,-0.298c-0.132,-0.132 -0.264,-0.264 -0.396,-0.397c-0.133,-0.132 -0.232,-0.33 -0.298,-0.595c-0.066,-0.264 -0.099,-0.529 -0.099,-0.793l-0,-136.654l26.379,-0c0.396,-0 0.76,0.099 1.091,0.297c0.33,0.199 0.595,0.463 0.793,0.794c0.198,0.33 0.297,0.694 0.297,1.09l0,136.655Zm-67.434,2.181c-5.686,0 -10.578,-0.793 -14.677,-2.38c-4.099,-1.586 -7.471,-3.933 -10.115,-7.041c-2.645,-3.107 -4.628,-6.908 -5.95,-11.404c-1.323,-4.496 -1.984,-9.718 -1.984,-15.669l0,-104.523l26.379,-0c0.529,-0 0.926,0.099 1.19,0.297c0.265,0.199 0.496,0.43 0.694,0.694c0.199,0.265 0.298,0.662 0.298,1.19l-0,100.557c-0,4.76 0.991,8.165 2.975,10.215c1.983,2.049 5.289,3.074 9.917,3.074c4.363,-0 8.495,-0.826 12.396,-2.479c3.9,-1.653 7.702,-4.231 11.404,-7.735c3.702,-3.504 7.272,-7.967 10.71,-13.388l0,28.164l-8.33,-0c-2.512,4.363 -5.454,8.065 -8.826,11.107c-3.372,3.041 -7.206,5.355 -11.503,6.941c-4.298,1.587 -9.157,2.38 -14.578,2.38Z" style="fill:#8e9093;fill-rule:nonzero;"/><path d="M1582.53,146.769c-9.52,0 -17.85,-1.223 -24.99,-3.669c-7.141,-2.446 -13.091,-5.983 -17.851,-10.611c-4.76,-4.628 -8.297,-10.313 -10.611,-17.057c-2.314,-6.743 -3.471,-14.412 -3.471,-23.007l0,-40.064c0,-7.801 1.19,-14.908 3.57,-21.321c2.38,-6.413 5.917,-11.934 10.611,-16.561c4.694,-4.628 10.446,-8.198 17.256,-10.711c6.809,-2.512 14.578,-3.768 23.304,-3.768c6.744,0 12.793,0.628 18.148,1.884c5.355,1.256 9.917,2.843 13.685,4.76c3.769,1.918 6.711,3.934 8.826,6.05c0.265,0.264 0.463,0.595 0.595,0.991c0.133,0.397 0.232,0.794 0.298,1.19c0.066,0.397 0.099,0.794 0.099,1.19l0,34.709l-23.007,0c-0.661,0 -1.19,-0.198 -1.587,-0.595c-0.396,-0.396 -0.595,-0.925 -0.595,-1.586l0,-25.586l5.554,8.33c-3.306,-2.115 -6.744,-3.603 -10.314,-4.462c-3.57,-0.86 -7.603,-1.29 -12.098,-1.29c-5.289,0 -9.884,0.959 -13.785,2.876c-3.9,1.918 -6.875,4.926 -8.925,9.025c-2.049,4.099 -3.074,9.322 -3.074,15.668l-0,37.089c-0,5.951 0.562,10.942 1.686,14.975c1.124,4.033 3.008,7.371 5.652,10.016c2.38,2.38 5.388,4.066 9.025,5.057c3.636,0.992 7.702,1.488 12.197,1.488c7.273,0 13.686,-0.859 19.239,-2.578c5.554,-1.719 11.371,-4.496 17.454,-8.331l3.768,0l0,21.818c0,0.661 -0.099,1.256 -0.297,1.785c-0.199,0.528 -0.496,0.925 -0.893,1.19c-1.851,1.983 -4.694,3.801 -8.528,5.454c-3.835,1.653 -8.397,3.008 -13.686,4.066c-5.289,1.058 -11.04,1.586 -17.255,1.586Z" style="fill:#8e9093;fill-rule:nonzero;"/><path d="M1638.07,3.967l96.392,-0c0.661,-0 1.223,0.198 1.686,0.595c0.463,0.396 0.694,0.925 0.694,1.586l0,22.016l-96.392,-0c-0.396,-0 -0.76,-0.099 -1.09,-0.298c-0.331,-0.198 -0.628,-0.462 -0.893,-0.793c-0.264,-0.331 -0.397,-0.694 -0.397,-1.091l0,-22.015Zm63.667,138.836l-26.379,-0c-0.661,-0 -1.19,-0.199 -1.587,-0.595c-0.397,-0.397 -0.595,-0.926 -0.595,-1.587l0,-122.969l30.742,0l-2.181,5.355l-0,119.796Z" style="fill:#8e9093;fill-rule:nonzero;"/><path d="M1806.85,127.927l-29.354,0l0.794,-8.131l-0,-100.954l29.354,0l-0.794,8.132l0,100.953Zm21.222,14.876l-68.823,-0c-0.264,-0 -0.528,-0.066 -0.793,-0.199c-0.264,-0.132 -0.496,-0.297 -0.694,-0.495c-0.198,-0.199 -0.364,-0.43 -0.496,-0.695c-0.132,-0.264 -0.198,-0.529 -0.198,-0.793l-0,-22.015l68.624,-0c0.397,-0 0.794,0.099 1.19,0.297c0.397,0.198 0.695,0.463 0.893,0.793c0.198,0.331 0.297,0.695 0.297,1.091l0,22.016Zm-71.004,-138.836l68.624,-0c0.794,-0 1.389,0.198 1.785,0.595c0.397,0.396 0.595,0.925 0.595,1.586l0,22.016l-68.823,-0c-0.528,-0 -1.024,-0.232 -1.487,-0.694c-0.463,-0.463 -0.694,-0.959 -0.694,-1.488l-0,-22.015Z" style="fill:#8e9093;fill-rule:nonzero;"/><path d="M1900.66,0c9.917,0 18.875,2.083 26.875,6.248c7.999,4.165 14.346,10.346 19.04,18.544c4.694,8.198 7.041,18.445 7.041,30.742l-0,37.883c-0,11.371 -2.314,21.024 -6.942,28.957c-4.628,7.934 -10.908,13.983 -18.842,18.148c-7.933,4.165 -16.991,6.247 -27.172,6.247c-9.917,0 -18.875,-2.082 -26.875,-6.247c-7.999,-4.165 -14.346,-10.214 -19.04,-18.148c-4.694,-7.933 -7.041,-17.586 -7.041,-28.957l-0,-37.883c-0,-12.297 2.446,-22.544 7.338,-30.742c4.893,-8.198 11.405,-14.379 19.536,-18.544c8.132,-4.165 16.826,-6.248 26.082,-6.248Zm-26.181,91.632c0,7.537 0.926,13.156 2.777,16.858c1.851,3.703 3.768,6.413 5.752,8.132c1.983,1.587 4.529,2.909 7.636,3.967c3.107,1.058 6.71,1.587 10.809,1.587c5.025,-0 9.388,-1.124 13.09,-3.372c3.703,-2.248 6.678,-5.686 8.926,-10.314c2.247,-4.627 3.371,-10.313 3.371,-17.057l0,-38.08c0,-4.232 -0.264,-7.769 -0.793,-10.611c-0.529,-2.843 -1.322,-5.256 -2.38,-7.24c-1.058,-1.983 -2.38,-3.702 -3.967,-5.156c-1.983,-1.984 -4.495,-3.504 -7.537,-4.562c-3.041,-1.058 -6.743,-1.587 -11.106,-1.587c-6.083,0 -11.074,1.19 -14.975,3.57c-3.901,2.38 -6.81,5.752 -8.727,10.115c-1.917,4.364 -2.876,9.521 -2.876,15.471l0,38.279Z" style="fill:#8e9093;fill-rule:nonzero;"/><path d="M2002.81,142.803l-24.792,-0c-0.396,-0 -0.76,-0.099 -1.091,-0.298c-0.33,-0.198 -0.595,-0.463 -0.793,-0.793c-0.198,-0.331 -0.297,-0.694 -0.297,-1.091l-0,-136.654l29.949,-0c0.793,-0 1.388,0.099 1.785,0.297c0.396,0.199 0.859,0.694 1.388,1.488c0.529,0.793 1.322,2.248 2.38,4.363c3.041,5.686 6.016,11.206 8.925,16.561c2.909,5.355 5.785,10.677 8.628,15.966c2.843,5.289 5.619,10.545 8.33,15.768c2.711,5.223 5.421,10.413 8.132,15.57c2.71,5.157 5.421,10.346 8.132,15.569c2.71,5.223 5.322,10.545 7.834,15.966l-7.735,-5.355l13.487,0l-4.165,2.38c-1.058,-5.95 -1.951,-11.503 -2.678,-16.66c-0.727,-5.157 -1.355,-10.082 -1.884,-14.776c-0.529,-4.694 -0.926,-9.256 -1.19,-13.685c-0.265,-4.43 -0.463,-8.793 -0.595,-13.091c-0.132,-4.297 -0.199,-8.693 -0.199,-13.189l0,-27.172l24.793,-0c0.661,-0 1.19,0.198 1.586,0.595c0.397,0.396 0.595,0.925 0.595,1.586l0,136.655l-24.395,-0c-0.793,-0 -1.719,-0.298 -2.777,-0.893c-1.058,-0.595 -2.446,-2.413 -4.165,-5.454c-5.818,-9.917 -11.173,-19.206 -16.065,-27.866c-4.893,-8.661 -9.454,-16.958 -13.686,-24.892c-4.231,-7.933 -8.297,-15.768 -12.197,-23.503c-3.901,-7.735 -7.835,-15.701 -11.801,-23.899l8.925,6.743l-13.685,0l3.57,-2.975c1.057,6.215 1.884,12.099 2.479,17.652c0.595,5.554 1.124,10.809 1.587,15.768c0.462,4.958 0.826,9.652 1.09,14.082c0.265,4.429 0.43,8.561 0.496,12.396c0.066,3.834 0.099,7.338 0.099,10.512l0,32.329Z" style="fill:#8e9093;fill-rule:nonzero;"/></g></g></svg>